#!OML:ASF F:\VICON\USERDATA\INSTALL\rory3\rory3.ASF
:FULLY-SPECIFIED
:DEGREES
3165
root 2.67763 18.6845 4.20545 181.775 85.2508 -538.524
lowerback 8.47888 3.05661 7.0206
upperback 1.0416 4.79204 0.887616
thorax -3.16631 2.32053 -3.51733
lowerneck -6.20615 8.4531 -2.6312
upperneck 34.273 13.2182 5.46323
head 11.6393 6.94573 4.06666
rclavicle 1.90833e-014 -1.74931e-014
rhumerus -42.9776 -0.425678 -73.6713
rradius 31.0039
rwrist 13.8363
rhand -41.2532 -2.04571
rfingers 7.12502
rthumb -14.1756 -31.5421
lclavicle 1.90833e-014 -1.74931e-014
lhumerus -29.4952 9.41584 64.9726
lradius 43.399
lwrist 7.04956
lhand -28.2283 24.0688
lfingers 7.12502
lthumb -1.60643 54.0425
rfemur -13.2032 14.2329 22.387
rtibia 28.2865
rfoot -19.2205 -21.9598
rtoes 9.41514
lfemur -17.897 14.2602 -17.0791
ltibia 68.6069
lfoot 2.60268 -14.9764
ltoes 0.374952
3166
root 2.71221 18.6881 4.22462 180.829 84.7024 -539.452
lowerback 8.65982 3.15988 7.08535
upperback 1.02658 4.9435 0.726288
thorax -3.24626 2.39 -3.74778
lowerneck -5.97242 8.47838 -2.40377
upperneck 34.1546 13.2596 5.3658
head 11.5708 6.99199 3.97639
rclavicle -5.28767e-014 8.74653e-015
rhumerus -42.9772 -0.149979 -73.8351
rradius 31.7186
rwrist 13.3797
rhand -40.06 -0.123688
rfingers 7.12502
rthumb -13.0256 -29.697
lclavicle -5.28767e-014 8.74653e-015
lhumerus -29.557 9.04793 64.7382
lradius 43.649
lwrist 8.75136
lhand -29.15 24.6055
lfingers 7.12502
lthumb -2.49659 54.5707
rfemur -12.9848 14.0742 22.4843
rtibia 28.2342
rfoot -19.4885 -22.5321
rtoes 9.31828
lfemur -18.7988 14.6615 -17.1064
ltibia 69.5437
lfoot 2.02299 -14.8994
ltoes 1.17899
3167
root 2.74559 18.6838 4.23412 182.505 84.1992 -537.746
lowerback 8.73199 3.10337 7.25792
upperback 1.08078 4.89055 0.725236
thorax -3.22141 2.36489 -3.84228
lowerneck -5.9116 8.66551 -2.2025
upperneck 34.212 13.5704 5.22892
head 11.5985 7.14226 3.92725
rclavicle 4.3832e-014 2.38542e-014
rhumerus -42.8459 1.04393 -74.2857
rradius 32.6246
rwrist 12.319
rhand -38.2641 1.91566
rfingers 7.12502
rthumb -11.294 -27.7603
lclavicle 4.3832e-014 2.38542e-014
lhumerus -29.7232 9.79325 64.1648
lradius 43.6497
lwrist 8.6196
lhand -28.5784 24.9092
lfingers 7.12502
lthumb -1.94458 54.88
rfemur -12.7528 14.1835 22.8009
rtibia 28.1886
rfoot -20.1408 -23.0909
rtoes 10.3124
lfemur -19.6693 15.1364 -16.8823
ltibia 70.4095
lfoot 1.21673 -14.914
ltoes -0.855128
3168
root 2.77511 18.6716 4.24128 183.244 83.6261 -536.969
lowerback 8.79824 3.06792 7.3861
upperback 1.21606 4.8597 0.747588
thorax -3.11179 2.35789 -3.88601
lowerneck -6.09887 8.81666 -2.40653
upperneck 34.3794 13.8001 5.44075
head 11.656 7.24514 4.08078
rclavicle 7.12643e-014 3.65764e-014
rhumerus -42.5212 1.92028 -74.4524
rradius 33.4318
rwrist 11.1804
rhand -40.5243 -2.01695
rfingers 7.12502
rthumb -13.4731 -31.5612
lclavicle 7.12643e-014 3.65764e-014
lhumerus -29.7964 10.5111 63.825
lradius 43.6672
lwrist 8.31298
lhand -28.8504 25.3921
lfingers 7.12502
lthumb -2.20721 55.3604
rfemur -12.5525 14.202 23.0396
rtibia 28.1762
rfoot -20.8436 -23.608
rtoes 11.5789
lfemur -20.5676 15.508 -16.775
ltibia 71.1653
lfoot 0.502826 -14.8393
ltoes -3.56616
3169
root 2.8075 18.6636 4.24825 180.642 83.0339 -539.392
lowerback 9.07267 3.16832 7.26486
upperback 1.43024 4.99781 0.69859
thorax -3.02987 2.43849 -3.89335
lowerneck -6.37938 8.78068 -2.90918
upperneck 34.4136 13.7698 5.7173
head 11.6577 7.20481 4.27489
rclavicle -5.9039e-014 5.56597e-015
rhumerus -42.0602 2.09774 -74.2058
rradius 33.9608
rwrist 10.6616
rhand -40.6935 -2.15883
rfingers 7.12502
rthumb -13.6363 -31.6922
lclavicle -5.9039e-014 5.56597e-015
lhumerus -29.6778 10.4707 63.9934
lradius 43.7646
lwrist 9.05043
lhand -30.0433 25.6407
lfingers 7.12502
lthumb -3.3593 55.594
rfemur -12.2051 13.7872 22.9332
rtibia 28.224
rfoot -20.741 -24.0549
rtoes 10.6199
lfemur -21.2114 15.6702 -17.1034
ltibia 71.7152
lfoot -0.181804 -14.684
ltoes -7.12722
3170
root 2.84233 18.6629 4.25289 178.881 82.5311 -541.012
lowerback 9.34398 3.31725 7.28796
upperback 1.5517 5.21513 0.614538
thorax -3.01783 2.55082 -4.02875
lowerneck -6.36664 8.68702 -3.19737
upperneck 34.2853 13.6503 5.83217
head 11.5741 7.13971 4.33698
rclavicle -2.68359e-014 1.19271e-014
rhumerus -41.6245 1.86235 -73.8456
rradius 34.266
rwrist 10.6085
rhand -40.1958 -1.10499
rfingers 7.12502
rthumb -13.1565 -30.6699
lclavicle -2.68359e-014 1.19271e-014
lhumerus -29.6444 10.2676 64.1396
lradius 43.8013
lwrist 9.80957
lhand -30.1261 25.323
lfingers 7.12502
lthumb -3.43924 55.275
rfemur -11.9514 13.6098 22.8523
rtibia 28.4017
rfoot -20.1232 -24.7174
rtoes 7.92599
lfemur -21.8122 15.9189 -17.3843
ltibia 72.081
lfoot -0.756901 -14.6491
ltoes -6.13588
3171
root 2.87527 18.6621 4.26099 178.329 82.1206 -541.604
lowerback 9.4471 3.43243 7.36089
upperback 1.59664 5.37744 0.487716
thorax -2.98925 2.63304 -4.22184
lowerneck -6.32489 8.67109 -3.18555
upperneck 34.199 13.6175 5.87586
head 11.5293 7.13777 4.33786
rclavicle 9.74045e-015 7.15625e-015
rhumerus -41.1727 1.48549 -73.5314
rradius 34.498
rwrist 10.5535
rhand -40.673 -1.96961
rfingers 7.12502
rthumb -13.6165 -31.5043
lclavicle 9.74045e-015 7.15625e-015
lhumerus -29.7488 10.3712 63.989
lradius 43.7671
lwrist 9.75787
lhand -29.9686 25.2003
lfingers 7.12502
lthumb -3.28718 55.1547
rfemur -11.9811 13.7587 22.854
rtibia 28.7173
rfoot -20.3505 -25.3258
rtoes 7.24282
lfemur -22.6121 16.2816 -17.5649
ltibia 72.3116
lfoot -1.16769 -14.7006
ltoes -6.07599
3172
root 2.91205 18.6559 4.27191 175.076 81.5795 -544.805
lowerback 9.58687 3.47905 6.89813
upperback 1.70896 5.3924 0.291669
thorax -2.97071 2.64833 -4.17729
lowerneck -6.37944 8.68413 -3.11496
upperneck 34.2078 13.6507 5.84958
head 11.5505 7.15896 4.32665
rclavicle 4.81059e-014 -2.38542e-015
rhumerus -40.7749 1.62781 -73.4721
rradius 34.9304
rwrist 10.2984
rhand -40.9721 -2.72817
rfingers 7.12502
rthumb -13.9047 -32.2433
lclavicle 4.81059e-014 -2.38542e-015
lhumerus -29.977 10.5031 63.7664
lradius 43.7671
lwrist 9.50637
lhand -30.1195 25.4443
lfingers 7.12502
lthumb -3.43289 55.3964
rfemur -11.8844 13.6941 22.4654
rtibia 29.1007
rfoot -21.5037 -25.5941
rtoes 8.81189
lfemur -23.2105 16.4578 -18.1742
ltibia 72.3725
lfoot -1.71998 -14.651
ltoes -7.39072
3173
root 2.94823 18.6515 4.27718 172.035 80.9442 -547.84
lowerback 9.68456 3.51488 6.42536
upperback 1.80436 5.38889 0.0941137
thorax -2.94975 2.65394 -4.12411
lowerneck -6.33869 8.67281 -3.1397
upperneck 34.1437 13.647 5.84719
head 11.5151 7.15908 4.3214
rclavicle 6.65929e-015 -1.35174e-014
rhumerus -40.3854 2.03189 -73.471
rradius 35.3519
rwrist 9.96233
rhand -40.3782 -1.39787
rfingers 7.12502
rthumb -13.3323 -30.9514
lclavicle 6.65929e-015 -1.35174e-014
lhumerus -30.2356 10.5779 63.5872
lradius 43.7384
lwrist 9.23804
lhand -29.9435 25.5256
lfingers 7.12502
lthumb -3.26288 55.4803
rfemur -11.8417 13.43 21.9932
rtibia 29.4814
rfoot -21.9881 -25.9005
rtoes 8.74814
lfemur -23.8187 16.4892 -18.8836
ltibia 72.3063
lfoot -2.24212 -14.5499
ltoes -8.48536
3174
root 2.98255 18.6523 4.27702 170.975 80.424 -548.987
lowerback 9.70164 3.60561 6.30865
upperback 1.87463 5.49119 -0.0649738
thorax -2.86898 2.71099 -4.2324
lowerneck -6.36802 8.6081 -3.15472
upperneck 34.0963 13.5518 5.88934
head 11.5013 7.12303 4.3291
rclavicle 7.55382e-015 -2.06736e-014
rhumerus -39.9344 2.07353 -73.2343
rradius 35.6009
rwrist 9.66442
rhand -39.6943 -0.0513352
rfingers 7.12502
rthumb -12.6731 -29.6468
lclavicle 7.55382e-015 -2.06736e-014
lhumerus -30.3583 10.6588 63.4391
lradius 43.5398
lwrist 8.72955
lhand -30.2185 25.4621
lfingers 7.12502
lthumb -3.5285 55.4126
rfemur -11.9417 13.1648 21.7714
rtibia 29.8378
rfoot -21.6455 -26.3801
rtoes 6.75089
lfemur -24.5209 16.5521 -19.3359
ltibia 72.1292
lfoot -2.53009 -14.4475
ltoes -7.92397
